<svg width="53" height="63" viewBox="0 0 53 63" fill="none" xmlns="http://www.w3.org/2000/svg">
<path fill-rule="evenodd" clip-rule="evenodd" d="M19.7479 4.39505C16.1846 6.29182 13.2694 7.89686 13.27 7.96214C13.2716 8.13063 21.822 12.5555 22.1255 12.5448C22.2636 12.54 23.265 12.069 24.3509 11.4981L26.3254 10.4603L28.482 11.593L30.6383 12.7259L34.1698 11.1043C39.4911 8.66092 40.0437 8.39317 39.9571 8.30321C39.8422 8.18386 37.9335 7.13611 32.7553 4.35036C30.2527 3.00398 27.8238 1.68389 27.3575 1.41677C26.8912 1.14965 26.4461 0.934773 26.3684 0.938933C26.2906 0.943092 23.3113 2.49836 19.7479 4.39505ZM4.11936 12.665L0.410012 14.6228V23.2156C0.410012 27.9417 0.45872 31.8083 0.518466 31.8083C0.578005 31.8083 2.40301 30.9999 4.57394 30.0119L8.5211 28.2155V19.1581L10.4499 20.2319C11.9363 21.0586 13.4235 21.8837 14.9116 22.7071L17.4444 24.1084L18.5715 23.5876C19.2783 23.2605 19.9837 22.9301 20.6877 22.5967C21.2317 22.3378 22.567 21.7232 23.6551 21.2306C24.7431 20.7378 25.7503 20.2423 25.8931 20.1293C26.0829 19.9793 23.7695 18.673 17.3366 15.2974C12.4876 12.7529 8.36463 10.6791 8.17449 10.689C7.98435 10.699 6.15955 11.588 4.11936 12.665ZM40.6256 13.2148C38.0993 14.3802 36.0306 15.3803 36.0282 15.4373C36.026 15.4943 37.4029 16.3309 39.0882 17.2961C40.7734 18.2616 42.1522 19.1032 42.1522 19.1665C42.1522 19.2298 40.661 19.9681 38.8386 20.8076C37.016 21.6469 32.4091 23.7729 28.6009 25.532L15.8408 31.4258C12.631 32.9085 9.73775 34.245 9.41136 34.3961C2.85518 37.4288 1.05314 38.2704 0.805674 38.4148C0.556824 38.5603 0.500459 39.4052 0.456167 43.6459L0.40332 48.7037L3.72039 50.4308L7.03739 52.1578L11.6369 50.0367C14.1667 48.8701 16.2365 47.8545 16.2365 47.7797C16.2365 47.7051 15.769 47.3939 15.1979 47.0878C14.6265 46.7817 13.447 46.104 12.5766 45.5816C11.7062 45.0592 10.8383 44.5799 10.6477 44.5163C10.4573 44.4529 10.3042 44.342 10.3073 44.2697C10.3104 44.1975 12.3359 43.2144 14.8079 42.0848C19.6095 39.8911 23.284 38.2004 31.1727 34.555C34.7002 32.9252 38.2282 31.2965 41.7566 29.6687C44.8576 28.2384 48.463 26.568 49.7687 25.9566L52.1427 24.8451L52.1955 19.7296L52.2485 14.6144L48.8842 12.8498C47.0337 11.8794 45.4521 11.0878 45.3691 11.0907C45.2863 11.0933 43.1517 12.0491 40.6256 13.2148ZM51.2413 31.6693C50.7456 31.9168 49.7663 32.3801 49.0652 32.6988C48.3642 33.0175 47.0337 33.6309 46.1089 34.0622L44.4273 34.8459L44.3889 39.3368C44.3677 41.8067 44.2787 43.8166 44.1911 43.8036C43.9921 43.7734 40.8405 42.1217 37.6724 40.387C35.3858 39.1352 35.2422 39.0854 34.7049 39.3573C34.3943 39.5146 32.5377 40.3655 30.5792 41.2485C28.6206 42.1313 26.9544 42.9113 26.876 42.9819C26.7978 43.0524 30.7396 45.2356 35.6357 47.8336L44.5375 52.5572L48.3402 50.5471C50.4315 49.4417 52.2098 48.4333 52.2917 48.3065C52.476 48.0213 52.4602 31.1803 52.2756 31.203C52.2027 31.212 51.7371 31.4219 51.2413 31.6693ZM30.1835 51.4365C29.5239 51.7263 28.8645 52.0164 28.2052 52.3071C26.2144 53.1872 26.6046 53.2164 24.2361 52.0115C22.6587 51.2091 21.9787 50.9615 21.6835 51.0817C21.4622 51.1718 19.5568 52.0478 17.4492 53.0282C15.3417 54.0086 13.5442 54.8107 13.4548 54.8107C12.5705 54.8107 14.0406 55.7083 19.7132 58.6323L26.3658 62.0611L29.1649 60.649C30.7044 59.8723 33.8095 58.3171 36.0654 57.1929C38.321 56.0684 40.1387 55.1193 40.1047 55.0835C40.0704 55.0478 38.1804 54.0561 35.9044 52.8796L31.7662 50.7408L30.1835 51.4365Z" fill="white"/>
</svg>
